<svg fill="#fff" xmlns="http://www.w3.org/2000/svg" xmlns:xlink="http://www.w3.org/1999/xlink" version="1.1" x="0px" y="0px" viewBox="0 0 100 125" enable-background="new 0 0 100 100" xml:space="preserve"><g><circle cx="70.133" cy="20.785" r="10.906"/><path fill="#fff" d="M31.249,37.124v-9.555h-3.754v9.555c-2.27,0.783-3.912,2.917-3.912,5.451v20.348h11.579V42.575   C35.163,40.039,33.521,37.907,31.249,37.124z"/><path fill="#fff" d="M5.911,39.896v7.47c0,3.475,2.498,6.372,5.789,7.01v8.547h2.711v-8.547c3.293-0.638,5.791-3.535,5.791-7.01v-7.47H5.911z    M17.491,47.366c0,2.445-1.988,4.435-4.435,4.435c-2.444,0-4.433-1.99-4.433-4.435v-4.759h8.868V47.366z"/></g><polygon fill="#fff" points="77.531,34.952 62.098,34.942 62.098,49.729 77.531,49.729 "/><path fill="#fff" d="M83.245,34.954h-2.304l-0.008,49.677H58.666l0.021-49.691h-2.854c-8.655,0-15.054,7.058-15.054,15.859v14.33H2.881  c-1.036,0-1.877,0.842-1.877,1.878c0,1.035,0.841,1.876,1.877,1.876h17.796c-5.746,1.082-5.324,9.521,1.266,9.521h23.626v-0.025  c2.42,0.016,4.851-1.811,4.851-5.473V51.805h3.071l-0.009,37.588H86.18l0.008-37.588H89.2v32.252c0,7.353,9.585,7.353,9.562,0  V51.025C98.764,42.909,92.749,34.954,83.245,34.954z"/></svg>
