<svg id="Layer_1" fill="white" data-name="Layer 1" xmlns="http://www.w3.org/2000/svg" viewBox="0 0 1368.11 230.58"><title>hyvemind-logo</title><path d="M432,159.93c-1.81.19-3.64.28-5.43.58-4.09.68-8,1.84-9.77,6.12a14.65,14.65,0,0,0-1.08,5.39c-.07,19.64,0,39.29,0,58.93,0,.32,0,.64.1,1.47,4.07,0,8.1-.06,12.12,0q26.77.45,53.54,1a4.89,4.89,0,0,1,1.19,0c.67.19,1.31.48,2,.73a6.56,6.56,0,0,1-2,.7q-32,.54-64.1,1c-.85,0-1.71,0-2.75,0,0,.8-.12,1.43-.12,2.06q0,29.07,0,58.14c0,4.51,1,8.67,5.55,10.53,2.81,1.15,6,1.37,9,2l1.86.42-.14.63H377.44l-.13-.57c.56-.16,1.1-.36,1.67-.47A71.9,71.9,0,0,0,387.5,307c3.9-1.24,6-4.23,6.29-8.33.12-1.45.17-2.91.17-4.37q0-60.43,0-120.86c0-8.24-3.07-11.8-11.3-13a32.63,32.63,0,0,1-5.39-.94,3.81,3.81,0,0,1,.93-.57,4.65,4.65,0,0,1,1.19,0q25.29,0,50.57,0a17,17,0,0,1,2.08.25Z" transform="translate(-107.95 -134.71)"/><path d="M535.5,309.56c-6.11.87-54.48.37-55.42-.71,2.14-.22,4.15-.3,6.11-.66a22.52,22.52,0,0,0,5.13-1.46c3.55-1.58,5.17-4.58,5.47-8.36.08-1,.08-2,.08-3q0-61,0-122a24.89,24.89,0,0,0-.19-4c-.79-4.87-4-7.5-8.56-8.49-2.57-.55-5.22-.72-8.26-1.12.52-.4.77-.71,1.09-.8a4.27,4.27,0,0,1,1.19,0q25.48,0,51,0a16.83,16.83,0,0,1,2.09.26v.7c-.71.08-1.42.2-2.14.25-3.45.24-6.86.66-9.9,2.52a9.09,9.09,0,0,0-4.4,7.38c-.09,1-.12,2-.12,3q0,61.32,0,122.64c0,7.08,2,10.17,7.83,11.93a41,41,0,0,0,6.06,1c.65.09,1.34,0,2,.11C534.78,308.73,535,309.1,535.5,309.56Z" transform="translate(-107.95 -134.71)"/><path d="M1476.05,295.76c-1.87,8.95-9.54,15.73-18.58,16a39.12,39.12,0,0,1-11.17-1.05c-6.28-1.7-8.82-6.77-9.57-12.83a56.83,56.83,0,0,1-.39-6.95q0-61.92,0-123.84c0-7.23-2.46-10.33-10.41-11a12,12,0,0,1-3.57-.71,81,81,0,0,0,35-8.61v2.61q0,72.47,0,144.95a42.25,42.25,0,0,0,.44,6.74c.92,5.64,5.78,7.65,10.53,4.42,3-2.06,4.65-5.18,6.11-8.41a15.47,15.47,0,0,1,1-1.67Z" transform="translate(-107.95 -134.71)"/><path d="M626.87,269.48a15.52,15.52,0,0,1,.51-2.66c3.78-10,7.85-20,11.31-30.1a137.49,137.49,0,0,0,5.25-20.33c1.59-9-4-15.51-13.15-16.19-.8-.06-1.59-.26-2.38-.4v-.63a9.32,9.32,0,0,1,1.53-.25q39.62,0,79.23,0c.52,0,1,.45,1.56.69a4.81,4.81,0,0,1-1.4.66c-6,.63-8.16,4.18-5.61,9.88,7.15,16,14.4,32,21.6,48,4.49,10,9,19.9,13.42,29.88a3.51,3.51,0,0,1-.09,2.67c-3,5.89-6.15,11.73-9.3,17.55a7.85,7.85,0,0,1-1.53,1.56,8.84,8.84,0,0,1-1.4-1.7Q702.82,258,679.26,207.85c-3.09-6.56-8.94-9.26-15.45-7.13-3.87,1.27-5.91,4.33-7.53,7.75-3.26,6.88-6.44,13.79-9.66,20.69l-18.22,39c-.22.48-.46.94-.69,1.42Z" transform="translate(-107.95 -134.71)"/><path d="M1430.17,293a18.22,18.22,0,0,1-1.05,1.85c-8,10.54-18.77,15.86-31.75,16.9a47.65,47.65,0,0,1-27.38-5.86,44,44,0,0,1-19.25-21.28c-5.86-13.14-6.87-27-5.33-41.09a57.21,57.21,0,0,1,7.89-24.15c7.89-12.85,19.47-20.2,34.3-22.22a44,44,0,0,1,35.1,9.84c2.53,2.07,4.53,4.79,6.74,7.25a6.35,6.35,0,0,1,.69,1.59c-2.87-2.33-5.32-4.66-8.09-6.51-10.57-7.1-29.17-8.86-40.87,1.46a37.73,37.73,0,0,0-11.57,19.11c-4.54,17.24-4.49,34.51,1.07,51.53,2.94,9,8.22,16.31,17,20.54,6.32,3,13,3.42,19.82,2.46a37,37,0,0,0,21.14-10.53,8.66,8.66,0,0,1,.75-.65A4,4,0,0,1,1430.17,293Z" transform="translate(-107.95 -134.71)"/><path d="M1237.7,215.13c2.69-2.49,5.21-5.21,8.11-7.43a51.3,51.3,0,0,1,34.29-10.94c8.87.38,17.18,2.46,23.82,8.9,5.07,4.93,7.58,11.14,8.53,18a90.94,90.94,0,0,1,.75,12.1c.07,20.11.22,40.22-.06,60.32-.12,8.56,2.14,11.92,12.32,12.57a3,3,0,0,1,1.87.78c-16.5.41-32.94.4-49.37.41l0-1c1.71-.19,3.43-.34,5.14-.59,6.69-1,9.09-3.75,9.09-10.46q0-32,0-63.91A43.81,43.81,0,0,0,1290,219c-3.27-9.18-10.91-14.37-21.24-14.76a40.09,40.09,0,0,0-28.88,10.12c-.54.47-1.1.9-1.65,1.35Z" transform="translate(-107.95 -134.71)"/><path d="M1115.73,309.62c-5,.75-48.4.31-49.5-.74,2-.23,3.76-.39,5.53-.64,6.35-.89,8.91-3.83,8.91-10.22q0-33.34,0-66.67a42.53,42.53,0,0,0-2-14.3c-2.84-8.05-9.19-12.38-18.47-12.78-10-.44-18.29,2.93-24.93,10.42a1,1,0,0,1-.87.32,10.26,10.26,0,0,1,.75-1.42c9.42-12.71,22.12-18,37.75-16.66a36.8,36.8,0,0,1,15,4.1c7.89,4.36,11.72,11.45,13.05,20a68.93,68.93,0,0,1,.76,10.3c.07,21.69.22,43.39-.06,65.08-.11,8.63,2.93,11.54,12.11,12.17.72,0,1.42.22,2.13.33Z" transform="translate(-107.95 -134.71)"/><path d="M1042.82,309.66h-49l-.13-.56c.55-.16,1.1-.37,1.67-.47a58.87,58.87,0,0,0,6.8-1.26,7.22,7.22,0,0,0,5.35-6.69c.08-.92.17-1.85.17-2.78q0-33.14,0-66.29c0-5.52-.34-11-2.49-16.21-3.1-7.5-9.08-10.72-16.86-11.11a29.47,29.47,0,0,0-24.28,10.08,2.48,2.48,0,0,1-1.38.83,10.21,10.21,0,0,1,.67-1.26,41.39,41.39,0,0,1,47.72-14.88c9.59,3.46,14.76,10.67,16.59,20.37a68.15,68.15,0,0,1,1.06,12.25c.1,22,0,43.93.05,65.89a24.55,24.55,0,0,0,.19,3.77,7.11,7.11,0,0,0,5.19,6,62.1,62.1,0,0,0,7.19,1.31,14.63,14.63,0,0,1,1.64.5Z" transform="translate(-107.95 -134.71)"/><path d="M1179.92,309.45c-2.64.81-48.47.48-49.52-.58,2-.22,3.74-.39,5.52-.64,6.36-.9,8.88-3.82,8.88-10.22,0-26.87-.09-53.74.06-80.6,0-7.86-2.31-10.87-11.36-11.54a6.82,6.82,0,0,1-2.94-.68c12.28-.59,24.12-2.71,35.33-8.77,0,1.18,0,1.95,0,2.72q0,49.16,0,98.32c0,.86,0,1.73,0,2.59a7.4,7.4,0,0,0,5.41,7.3,50.51,50.51,0,0,0,6.79,1.27c.64.11,1.28.19,1.92.29Z" transform="translate(-107.95 -134.71)"/><path d="M920.67,204.89c12.2-.09,23.94-2.16,35.06-8.22,0,1.12,0,1.88,0,2.64q0,48.76,0,97.52c0,.53,0,1.06,0,1.59.06,5.85,2.73,8.92,8.54,9.77,1.44.21,2.9.25,4.34.44a6.73,6.73,0,0,1,1.43.53l-.15.51H920.67l-.17-.52a10.73,10.73,0,0,1,1.55-.52,62.1,62.1,0,0,0,7-1.24,7.36,7.36,0,0,0,5.57-7.36c0-.86.06-1.72.06-2.59,0-26.74-.1-53.47.06-80.21.05-8.33-3.11-10.72-11.11-11.36-.94-.08-1.9,0-2.85,0Z" transform="translate(-107.95 -134.71)"/><path d="M1196.24,204.89c12.2-.1,23.94-2.16,35.07-8.23v2.64q0,48.76,0,97.52c0,.53,0,1.06,0,1.59.06,5.86,2.72,8.93,8.54,9.77,1.44.21,2.9.25,4.34.44a6.85,6.85,0,0,1,1.44.52l-.14.51h-49.23l-.18-.52a10.54,10.54,0,0,1,1.55-.53,62.34,62.34,0,0,0,7-1.24,7.35,7.35,0,0,0,5.57-7.36c0-.86.06-1.72.06-2.59q0-40,0-80c0-.07,0-.13,0-.2.43-8.34-3-10.72-11-11.36-.94-.08-1.9,0-2.85,0Z" transform="translate(-107.95 -134.71)"/><path d="M849.49,197.24c-.35.23-.67.6-1,.66-13,2.25-20.1,10.91-24.56,22.43a77.22,77.22,0,0,0-4.63,22.7c-.75,10.63-.65,21.21,2.58,31.52,3.76,12,10.45,21.67,22,27.41,8.39,4.18,17.27,4.82,26.37,3.3a49.64,49.64,0,0,0,25.53-12.44c.64-.58,1.3-1.13,2-1.68.06,0,.23,0,.7.15-.48.69-.85,1.33-1.32,1.88-7.56,9-17.4,14.17-28.6,16.88-17.92,4.33-34.65,1.58-49.63-9.44A51.63,51.63,0,0,1,799,270.32c-3.61-14.88-2.88-29.52,3.91-43.43C810.13,212,822.12,202.7,838,198.41c3.65-1,7.48-1.33,11.22-2Z" transform="translate(-107.95 -134.71)"/><path d="M545.48,199.15a12.59,12.59,0,0,1,1.72-.23q20.31,0,40.61,0a2.09,2.09,0,0,1,.79,0,6.85,6.85,0,0,1,1,.66c-.32.23-.61.58-1,.67a31.9,31.9,0,0,0-3.48.71c-3.4,1.25-4.66,4.26-3.08,8,2.9,6.82,6,13.56,9,20.31q13.21,29.33,26.47,58.62a3.1,3.1,0,0,1-.18,3.11c-3.15,5.82-6.25,11.68-9.4,17.5a6.78,6.78,0,0,1-1.26,1.31c-.47-.47-1.12-.86-1.38-1.42Q588.76,273.18,572.21,238q-7.27-15.45-14.52-30.91a11.08,11.08,0,0,0-9.87-6.9c-.78-.05-1.56-.19-2.34-.29Z" transform="translate(-107.95 -134.71)"/><path d="M836.53,246.1c.78,0,1.56,0,2.34,0,9.74-.4,19.48-.73,29.21-1.25a42.11,42.11,0,0,0,7.4-1.4c5-1.2,7.91-4.41,8.33-9.58.55-6.67.1-13.25-2.65-19.48-4-9-10.88-14.25-20.47-16.12a23.6,23.6,0,0,1-2.42-.74l.23-.92c2.85.32,5.74.44,8.54,1,12.38,2.49,22.47,8.52,29.1,19.56,5.31,8.84,6.14,18.44,4.41,28.41-.25,1.42-.88,1.92-2.38,1.91-20-.05-39.94,0-59.91-.05a9.76,9.76,0,0,1-2-.42Z" transform="translate(-107.95 -134.71)"/><path d="M1153.83,152c6.06.25,10.87,1.57,13.91,6.24,5.38,8.29.29,18.67-9.78,20.11-5.46.78-10.65.1-14.91-3.73-3.68-3.31-4.67-7.67-3.63-12.34,1.11-5,4.57-7.95,9.34-9.36A39.46,39.46,0,0,1,1153.83,152Z" transform="translate(-107.95 -134.71)"/><path d="M563.27,336.63c-.19,2.47-.8,4.87-.48,7.13,1,7,8.12,10.59,14.65,7.59a24.81,24.81,0,0,0,9.94-8.68c4-5.71,7.52-11.68,11.27-17.53a17.17,17.17,0,0,1,1.27-1.56l.43.29c0,.17.09.38,0,.52-4.75,10-9.58,20-16.3,28.84-3.55,4.69-7.54,8.94-13.26,11.06-8.09,3-17.21-1-19.41-8.48-2.44-8.29,1.38-15.46,9.86-18.54C562,337,562.75,336.79,563.27,336.63Z" transform="translate(-107.95 -134.71)"/><path d="M748.83,269.81c-1.26-.87-.75-1.81-.36-2.83,4-10.38,8.1-20.7,11.75-31.19a132,132,0,0,0,4.8-18.21c1.06-5.49.11-10.74-4.71-14.52a14.58,14.58,0,0,0-7.52-2.8l-3.24-.41c1.12-1.07,38.6-1.37,41.55-.38a6.89,6.89,0,0,1-1.63.54c-6.13,0-9.68,3.43-12.11,8.66q-13.74,29.63-27.58,59.21C749.47,268.52,749.15,269.15,748.83,269.81Z" transform="translate(-107.95 -134.71)"/><path d="M107.95,134.71v197h197v-197Zm25,.25h13.46v50.48l59.27-35.52,59.88,36.69V135H279v86.88H265.57V205.41l-.11.18L205.6,168.9l-59.17,35.46v17.47H133Zm147,196.5H266.47V280.13l-60,36.38-59.13-35.83v50.79H133.86V244.58h13.46v17.1l59.13,35.83,60-36.38V244.58h13.46Z" transform="translate(-107.95 -134.71)"/></svg>
