<svg xmlns="http://www.w3.org/2000/svg" xmlns:xlink="http://www.w3.org/1999/xlink" version="1.1" x="0px" y="0px" viewBox="0 0 100 125" enable-background="new 0 0 100 100" xml:space="preserve"><path fill="#fff" d="M-103.9-161.1"/><path fill="none" d="M39.9,43.2c8.4,0,15.2-6.8,15.2-15.2c0-8.4-6.8-15.2-15.2-15.2S24.7,19.6,24.7,28  C24.7,36.4,31.5,43.2,39.9,43.2z M39.9,18.7c5.1,0,9.3,4.2,9.3,9.3s-4.2,9.3-9.3,9.3s-9.3-4.2-9.3-9.3S34.8,18.7,39.9,18.7z"/><path fill="none" d="M39.9,90.1C51.6,90.1,61,80.6,61,69c0-11.6-9.4-21.1-21.1-21.1S18.8,57.3,18.8,69  C18.8,80.6,28.3,90.1,39.9,90.1z M39.9,54.9c8,0,14.5,6.5,14.5,14.5s-6.5,14.5-14.5,14.5s-14.5-6.5-14.5-14.5S31.9,54.9,39.9,54.9z"/><path fill="#fff" d="M10.9,97.9H69V5.6H10.9V97.9z M39.9,12.8c8.4,0,15.2,6.8,15.2,15.2c0,8.4-6.8,15.2-15.2,15.2  S24.7,36.4,24.7,28C24.7,19.6,31.5,12.8,39.9,12.8z M39.9,47.9C51.6,47.9,61,57.3,61,69c0,11.6-9.4,21.1-21.1,21.1  S18.8,80.6,18.8,69C18.8,57.3,28.3,47.9,39.9,47.9z"/><polygon fill="#fff" points="70.9,5.6 70.9,97.9 89.1,89.8 89.1,14.8 "/><path fill="#fff" d="M39.9,83.9c8,0,14.5-6.5,14.5-14.5s-6.5-14.5-14.5-14.5s-14.5,6.5-14.5,14.5S31.9,83.9,39.9,83.9z   M39.9,58.1c6.2,0,11.3,5,11.3,11.3c0,6.2-5,11.3-11.3,11.3s-11.3-5-11.3-11.3C28.6,63.1,33.7,58.1,39.9,58.1z"/><path fill="#fff" d="M39.9,37.3c5.1,0,9.3-4.2,9.3-9.3s-4.2-9.3-9.3-9.3s-9.3,4.2-9.3,9.3S34.8,37.3,39.9,37.3z M39.9,22.8  c2.9,0,5.2,2.3,5.2,5.2s-2.3,5.2-5.2,5.2s-5.2-2.3-5.2-5.2S37,22.8,39.9,22.8z"/><circle fill="#fff" cx="39.9" cy="69.4" r="9.8"/><circle fill="#fff" cx="39.9" cy="28" r="4.1"/></svg>
