<?xml version="1.0" standalone="no"?>
<!DOCTYPE svg PUBLIC "-//W3C//DTD SVG 20010904//EN"
 "http://www.w3.org/TR/2001/REC-SVG-20010904/DTD/svg10.dtd">
<svg version="1.0" xmlns="http://www.w3.org/2000/svg"
 width="500.000000pt" height="500.000000pt" viewBox="0 0 500.000000 500.000000"
 preserveAspectRatio="xMidYMid meet">
<metadata>
Created by potrace 1.11, written by Peter Selinger 2001-2013
</metadata>
<g transform="translate(0.000000,500.000000) scale(0.100000,-0.100000)"
fill="#000000" stroke="none">
<path d="M0 2500 l0 -2500 2500 0 2500 0 0 2500 0 2500 -2500 0 -2500 0 0
-2500z m970 1854 c0 -608 1 -636 18 -632 10 3 350 204 756 447 l737 442 757
-464 757 -463 3 653 2 653 170 0 170 0 0 -1100 0 -1100 -170 0 -170 0 0 208
-1 207 -735 450 c-405 248 -748 456 -763 463 -26 13 -53 -2 -776 -435 l-750
-448 -3 -223 -2 -222 -165 0 -165 0 0 1100 0 1100 165 0 165 0 0 -636z m30
-2362 l0 -217 742 -450 c408 -248 749 -450 758 -450 9 0 356 206 773 459 l757
458 0 209 0 209 165 0 165 0 0 -1100 0 -1100 -165 0 -165 0 0 650 c0 358 -2
650 -5 650 -2 0 -347 -207 -765 -461 l-760 -461 -744 451 c-409 248 -746 451
-750 451 -3 0 -6 -288 -6 -640 l0 -640 -170 0 -170 0 0 1100 0 1100 170 0 170
0 0 -218z"/>
</g>
</svg>
